<?xml version="1.0" standalone="no"?>
<!DOCTYPE svg PUBLIC "-//W3C//DTD SVG 20010904//EN"
 "http://www.w3.org/TR/2001/REC-SVG-20010904/DTD/svg10.dtd">
<svg version="1.0" xmlns="http://www.w3.org/2000/svg"
 width="2362.000000pt" height="2362.000000pt" viewBox="0 0 2362.000000 2362.000000"
 preserveAspectRatio="xMidYMid meet">

<g transform="translate(0.000000,2362.000000) scale(0.100000,-0.100000)"
fill="#000000" stroke="none">
<path d="M17470 21370 c0 -6 -100 -10 -255 -10 l-255 0 29 -45 c40 -63 64
-158 59 -231 -3 -32 5 -183 18 -334 30 -353 52 -697 60 -925 3 -99 17 -281 32
-405 22 -195 26 -267 26 -540 0 -250 -3 -342 -18 -445 -20 -149 -49 -291 -77
-384 -11 -35 -17 -66 -15 -69 15 -14 144 55 242 129 37 27 68 48 71 46 2 -3
-89 -94 -202 -204 l-205 -199 -36 -133 c-19 -74 -33 -138 -32 -143 5 -13 208
128 318 220 162 135 306 298 418 473 l42 66 118 21 c156 29 162 29 162 -7 0
-23 -21 -47 -117 -138 -286 -266 -555 -493 -818 -691 l-180 -135 -51 -191
c-28 -105 -56 -208 -62 -229 -10 -37 -10 -38 8 -25 10 7 85 62 166 122 557
411 1052 656 1323 656 52 0 144 -24 176 -46 30 -21 35 -17 23 17 -23 67 -136
139 -219 139 -28 0 -33 6 -64 73 -37 79 -79 210 -73 227 2 6 68 69 148 141
159 142 149 138 270 119 389 -62 579 -331 505 -717 -18 -94 -18 -97 -1 -57 28
63 57 202 62 299 10 161 -28 278 -121 372 -90 90 -248 153 -420 169 -41 4 -75
8 -75 9 0 1 74 78 165 170 l166 168 162 2 c102 2 197 9 257 20 106 19 109 20
130 28 8 3 44 15 80 27 36 11 76 28 90 36 28 17 29 17 -90 -16 -41 -11 -79
-20 -85 -20 -6 0 -19 30 -28 68 -9 37 -19 76 -22 87 -6 18 3 21 105 38 107 17
275 69 352 108 60 30 45 30 -41 -1 -86 -32 -245 -65 -362 -75 l-77 -7 -38 72
c-20 39 -57 93 -81 120 -23 26 -43 53 -43 58 0 6 20 39 44 74 213 307 190 569
-68 752 -65 47 -216 125 -278 145 -32 11 -38 17 -38 40 0 47 -38 180 -67 234
-34 64 -143 174 -203 205 -45 23 -45 23 -15 1 133 -99 235 -280 235 -417 0
-28 -3 -33 -17 -27 -28 10 -243 65 -258 65 -7 0 -62 49 -121 108 -60 60 -140
130 -179 157 -38 27 -72 50 -74 52 -2 1 7 23 20 48 19 36 28 44 44 39 55 -16
226 -106 273 -143 30 -24 56 -41 58 -38 2 2 -10 26 -28 53 -40 59 -120 111
-235 150 -78 27 -82 30 -88 63 -4 19 -16 53 -27 74 l-20 39 35 37 c51 54 116
140 138 182 29 58 25 92 -15 127 -42 36 -107 52 -216 52 l-79 0 5 30 6 29
-226 0 c-136 0 -226 -4 -226 -9z m500 -85 c35 -18 50 -43 50 -85 0 -32 -35
-109 -66 -147 l-19 -23 -53 36 c-39 27 -52 40 -47 53 4 9 21 53 37 99 33 89
43 96 98 67z m-361 -150 c9 -51 9 -78 -3 -132 -17 -79 -32 -123 -44 -123 -4 0
-27 19 -49 43 l-42 42 39 58 c21 33 47 85 57 118 10 32 21 59 24 59 4 0 12
-29 18 -65z m271 -84 l45 -40 -85 -85 c-57 -58 -92 -86 -107 -86 -13 0 -23 4
-23 10 0 13 113 240 120 240 3 0 25 -18 50 -39z m161 -211 c7 -22 9 -43 6 -46
-3 -4 -28 -1 -54 5 l-49 12 36 38 c19 21 38 36 42 34 4 -2 13 -22 19 -43z
m-575 -41 c24 -6 44 -14 44 -17 0 -9 -107 -145 -135 -172 -26 -25 -27 -25 -41
-5 -35 48 -55 170 -32 193 15 15 105 16 164 1z m532 -40 c28 -7 52 -18 52 -24
0 -16 -21 -75 -26 -75 -15 0 -144 77 -144 86 0 18 25 35 45 30 11 -3 44 -11
73 -17z m-34 -167 c3 -5 -15 -24 -39 -42 -25 -19 -45 -35 -45 -37 0 -6 17 5
67 40 l41 29 49 -33 c55 -37 141 -106 196 -158 33 -31 35 -36 20 -43 -16 -6
-15 -7 4 -7 13 -1 39 -21 66 -53 45 -54 129 -180 123 -185 -2 -2 -53 5 -113
16 -99 18 -347 38 -298 25 11 -3 61 -17 110 -31 109 -30 340 -119 360 -139 13
-13 75 -190 75 -215 0 -5 -15 1 -32 14 -29 22 -68 45 -253 148 -63 35 -238 94
-327 110 l-68 12 24 31 c36 48 66 140 73 224 l6 77 -24 -22 c-22 -20 -79 -48
-84 -41 -1 2 -10 34 -20 72 -10 37 -40 111 -67 164 l-49 96 22 17 c22 17 26
16 100 -22 43 -21 80 -42 83 -47z m-227 -73 c36 -59 89 -196 80 -205 -14 -15
-302 99 -295 116 7 16 164 149 173 146 5 -1 24 -27 42 -57z m917 -277 l49 -17
-6 -98 c-3 -54 -8 -101 -11 -104 -3 -3 -31 4 -63 16 -53 20 -61 26 -88 79 -16
31 -49 85 -72 120 -24 34 -43 64 -43 66 0 6 171 -40 234 -62z m-1054 -108 c0
-1 -20 6 -45 15 -40 14 -45 19 -45 46 l0 29 45 -44 c25 -24 45 -45 45 -46z
m1228 32 c239 -123 362 -293 362 -502 0 -73 -26 -184 -61 -261 -15 -35 -29
-63 -31 -63 -2 0 -4 35 -6 78 -6 150 -49 273 -137 385 -49 61 -136 136 -198
168 -26 14 -37 25 -33 35 3 8 11 55 18 105 6 49 13 89 15 89 2 0 34 -15 71
-34z m-1161 -82 l28 -19 -72 -3 c-87 -3 -113 8 -113 48 l0 29 64 -18 c36 -10
78 -27 93 -37z m111 -71 c51 -6 53 -7 47 -32 -9 -34 -4 -31 -68 -38 -50 -5
-58 -3 -100 28 -26 19 -46 37 -47 42 0 9 95 9 168 0z m300 -49 c88 -22 164
-53 102 -40 -14 3 -54 8 -90 11 -36 4 -72 9 -80 12 -8 4 -41 5 -72 4 -47 -2
-58 0 -58 12 0 25 18 29 52 13 40 -20 62 -20 26 0 -16 8 -28 17 -28 20 0 5 23
0 148 -32z m-568 -14 c20 -17 29 -29 20 -29 -15 0 -70 42 -70 54 0 11 16 3 50
-25z m-135 -24 c28 -22 28 -25 11 -32 -14 -5 -24 -1 -38 15 -35 45 -19 54 27
17z m1271 -27 c3 -6 2 -15 -4 -21 -6 -6 -11 -2 -15 11 -5 22 7 29 19 10z
m-846 -9 c0 -5 -4 -10 -9 -10 -6 0 -13 5 -16 10 -3 6 1 10 9 10 9 0 16 -4 16
-10z m315 -24 c28 -18 76 -56 107 -84 60 -53 171 -173 165 -178 -8 -8 -191 60
-307 114 -88 41 -230 125 -230 137 0 41 9 45 114 45 99 0 103 -1 151 -34z
m133 4 c107 -26 128 -37 213 -117 91 -86 96 -95 73 -144 -28 -62 -49 -54 -156
57 -51 52 -126 121 -168 151 -41 31 -79 60 -84 65 -17 14 34 9 122 -12z m-554
-41 l64 -42 -26 -53 c-14 -30 -31 -54 -37 -54 -5 0 -20 22 -32 48 -12 26 -38
69 -58 95 l-36 47 30 0 c18 0 56 -17 95 -41z m1065 -5 c78 -59 134 -124 171
-199 47 -97 46 -100 -30 -99 -36 0 -96 7 -134 15 -80 17 -77 12 -96 156 -9 71
-9 100 1 132 7 23 16 41 20 41 4 0 34 -21 68 -46z m-1250 -29 c18 -25 29 -45
26 -45 -4 0 -36 16 -72 36 -66 37 -70 54 -12 54 19 0 34 -11 58 -45z m-214
-35 c41 -24 59 -42 83 -87 39 -75 74 -163 64 -163 -5 0 -29 7 -54 16 -43 14
-47 19 -69 75 -12 34 -39 87 -60 119 -33 51 -38 70 -21 70 2 0 28 -13 57 -30z
m1278 -22 c17 -12 15 -48 -2 -48 -3 0 -26 23 -50 51 l-44 51 39 -20 c22 -11
47 -27 57 -34z m-701 -14 c73 -41 274 -135 333 -154 l40 -14 -115 -19 c-95
-15 -298 -63 -397 -93 -23 -6 -23 -5 -23 76 l0 83 38 -7 c101 -17 253 -26 322
-17 l75 8 -66 2 c-99 2 -329 52 -329 72 0 7 52 99 56 99 1 0 31 -16 66 -36z
m-330 -70 c43 -14 47 -18 58 -64 11 -47 10 -51 -15 -84 -28 -37 -45 -39 -45
-6 0 10 -11 51 -25 92 -14 40 -25 74 -25 76 0 4 5 2 52 -14z m1056 -72 c2 -7
-5 -12 -17 -12 -14 0 -19 5 -14 15 6 17 25 15 31 -3z m-138 -87 c13 -8 -11
-50 -123 -222 l-79 -122 -107 39 c-177 63 -192 71 -187 89 3 9 14 49 25 90 11
41 22 75 23 77 2 1 68 16 148 33 111 24 162 30 217 27 40 -2 77 -7 83 -11z
m500 -132 l-11 -53 -78 0 c-43 0 -101 -7 -130 -16 -29 -8 -54 -14 -56 -12 -1
2 0 45 3 96 l4 92 72 0 c39 1 100 6 136 13 l65 12 3 -40 c2 -22 -1 -64 -8 -92z
m-1347 83 c-3 -16 -10 -23 -19 -19 -17 6 -17 8 -2 32 16 25 27 18 21 -13z
m1009 11 c14 -22 9 -193 -6 -206 -11 -9 -17 1 -30 54 -9 37 -28 89 -41 117
-14 29 -25 54 -25 56 0 10 94 -9 102 -21z m-651 -94 c-12 -38 -25 -73 -29 -80
-5 -9 -33 -1 -100 29 -50 22 -92 43 -92 47 0 7 233 80 239 75 2 -2 -6 -34 -18
-71z m558 -2 c17 -39 33 -86 36 -104 5 -31 3 -34 -83 -89 -86 -56 -89 -57
-128 -46 -21 7 -41 13 -43 15 -2 1 28 53 66 115 39 62 80 130 93 151 12 21 24
36 26 34 2 -2 17 -36 33 -76z m-948 -94 c-1 -12 -15 -9 -19 4 -3 6 1 10 8 8 6
-3 11 -8 11 -12z m1349 6 c0 -22 -66 -116 -122 -175 l-63 -68 -48 11 c-43 10
-48 14 -44 32 3 12 9 45 12 72 4 28 9 57 11 66 4 16 51 37 124 58 42 11 130
14 130 4z m-1147 -70 c59 -21 107 -42 107 -48 0 -5 -9 -30 -20 -53 l-20 -44
-37 23 c-54 32 -161 108 -168 118 -7 13 5 41 19 41 6 0 59 -17 119 -37z m-313
-13 c38 -25 49 -37 53 -66 6 -35 1 -64 -12 -64 -5 0 -89 129 -99 152 -7 15 11
8 58 -22z m1678 -43 c35 -46 82 -127 82 -142 0 -3 -49 -5 -110 -5 -105 0 -121
4 -101 26 10 11 36 83 51 141 13 52 25 49 78 -20z m-531 -4 c-3 -10 -5 -2 -5
17 0 19 2 27 5 18 2 -10 2 -26 0 -35z m-18 -50 c1 -18 0 -33 -1 -33 -46 8
-113 29 -111 34 1 5 23 23 50 41 47 32 48 32 55 11 3 -11 6 -36 7 -53z m-521
16 c61 -18 112 -36 112 -40 0 -3 -23 -36 -50 -72 l-51 -67 -99 50 c-55 28
-100 51 -100 53 1 8 30 100 36 108 3 6 14 9 23 6 9 -2 67 -19 129 -38z m-367
-55 c60 -31 109 -58 109 -59 0 -2 -16 -32 -36 -66 -105 -187 -226 -305 -345
-339 -21 -6 -29 -5 -29 3 0 7 34 97 75 200 63 158 73 190 63 206 -10 16 -7 27
13 65 13 25 28 46 32 46 5 0 58 -25 118 -56z m584 0 c12 -5 2 -22 -52 -78
-105 -110 -127 -102 -42 14 50 69 61 76 94 64z m201 -44 c54 -11 100 -22 102
-24 2 -3 -1 -36 -8 -74 -9 -55 -18 -75 -40 -97 l-29 -28 -88 23 c-129 34 -188
55 -188 69 0 12 134 151 146 151 4 0 51 -9 105 -20z m194 -36 c0 -10 -61 -84
-69 -84 -5 0 -4 20 2 45 9 40 13 45 39 45 15 0 28 -3 28 -6z m-728 -40 c48
-20 88 -41 88 -46 0 -12 -182 -229 -188 -224 -2 3 3 46 12 97 23 135 20 137
-24 9 -64 -187 -97 -243 -196 -340 -48 -47 -89 -80 -91 -75 -2 6 22 49 52 95
64 96 179 326 221 442 16 43 31 78 34 78 2 0 44 -16 92 -36z m1317 -59 c13
-42 21 -82 18 -89 -8 -19 -159 -36 -331 -36 l-147 0 59 73 c32 39 67 84 76 99
18 27 18 27 154 30 76 2 140 2 143 1 3 -1 16 -36 28 -78z m-1146 -12 c3 -5
-15 -42 -39 -83 -24 -41 -58 -121 -76 -177 l-33 -103 -75 -26 c-139 -48 -132
-47 -116 -16 8 15 49 70 93 123 43 52 112 139 153 192 72 94 84 105 93 90z
m265 -83 c50 -12 92 -25 92 -29 0 -4 -21 -27 -47 -52 -47 -44 -95 -66 -372
-167 -10 -4 -12 1 -6 19 19 65 62 161 97 221 l39 66 52 -17 c29 -10 94 -28
145 -41z m-189 -324 c-74 -78 -117 -106 -161 -106 -10 0 -10 72 0 85 4 6 52
30 107 53 55 23 107 47 115 52 36 22 16 -5 -61 -84z m-241 -78 l-3 -32 -105
-18 c-117 -19 -136 -21 -126 -11 6 7 214 90 229 92 5 0 7 -13 5 -31z m-418
-202 c0 -2 -29 -41 -65 -86 -73 -93 -152 -178 -242 -261 -145 -133 -114 -88
86 124 118 125 216 227 218 227 2 0 3 -2 3 -4z m498 -304 c18 -53 35 -104 38
-113 5 -13 -11 -18 -103 -28 -59 -7 -165 -28 -235 -45 -71 -18 -128 -32 -128
-31 0 1 28 24 62 51 34 27 120 97 191 156 71 60 132 108 136 108 3 -1 21 -44
39 -98z"/>
<path d="M6245 20514 c-164 -25 -365 -85 -514 -155 -50 -23 -89 -44 -87 -46 2
-3 22 5 43 15 66 34 235 89 359 118 171 38 387 45 532 15 57 -12 136 -35 176
-51 77 -30 197 -99 203 -115 4 -13 -152 -59 -197 -58 -19 0 -75 13 -125 28
-78 24 -107 27 -220 28 -182 0 -285 -24 -462 -108 l-93 -44 -87 43 c-165 81
-286 110 -458 109 -251 -1 -459 -97 -672 -310 -51 -50 -115 -104 -143 -119
-94 -51 -212 -186 -257 -291 l-14 -36 -68 7 c-145 13 -315 74 -423 151 -52 38
-56 34 -33 -22 39 -93 146 -179 295 -236 l84 -32 -59 -8 c-33 -5 -114 -6 -180
-3 -240 10 -445 98 -608 262 -37 37 -67 64 -67 59 0 -15 82 -158 123 -215 146
-202 323 -304 527 -305 87 0 103 3 185 37 277 113 619 179 1020 196 221 10
480 0 580 -22 141 -31 262 -39 539 -33 326 6 488 25 631 73 152 51 218 64 360
70 201 9 401 -29 590 -112 44 -20 112 -46 152 -58 159 -51 280 -150 348 -285
42 -84 61 -158 74 -286 22 -211 99 -345 325 -562 180 -172 393 -324 682 -483
155 -86 244 -152 381 -284 120 -114 196 -212 258 -329 130 -244 120 -510 -27
-724 -16 -24 -26 -43 -23 -43 15 0 214 90 349 157 158 79 285 154 353 209 46
38 55 39 165 22 43 -6 80 -9 83 -6 3 3 -8 37 -24 76 -17 40 -27 72 -23 72 4 0
53 -9 110 -20 56 -11 108 -20 115 -20 7 0 -30 23 -81 51 -52 28 -92 52 -90 55
2 2 22 -2 44 -8 55 -16 219 -15 284 1 116 28 256 115 311 192 20 29 18 28 -40
-14 -112 -83 -221 -112 -391 -104 -86 4 -134 11 -190 30 l-75 25 72 1 c298 4
516 110 637 309 67 110 117 311 115 457 -1 51 -10 29 -33 -73 -34 -153 -127
-297 -233 -359 -68 -39 -156 -63 -236 -63 -81 0 -147 9 -147 20 0 4 19 12 43
19 124 37 260 139 307 232 48 93 63 223 39 341 -21 107 -32 107 -19 -1 11 -86
-1 -193 -29 -257 -27 -61 -91 -126 -155 -157 -83 -41 -93 -36 -46 24 142 180
176 362 96 523 -19 39 -52 88 -74 109 l-39 38 36 -72 c63 -128 44 -243 -61
-350 -71 -73 -196 -149 -328 -199 l-55 -20 30 26 c133 115 170 153 213 218 61
90 89 163 98 250 6 61 -10 191 -25 200 -3 2 -7 -31 -7 -73 -4 -213 -100 -365
-263 -416 -21 -6 -18 0 22 45 95 109 138 238 135 410 0 58 -3 92 -5 75 -15
-113 -68 -219 -152 -304 -51 -53 -160 -135 -168 -127 -2 2 24 54 57 117 103
195 153 349 154 479 1 58 -4 83 -20 110 -29 49 -78 80 -129 80 -38 0 -45 4
-69 40 -27 42 -85 89 -133 109 -22 9 -38 33 -73 108 -216 466 -551 783 -946
898 -148 43 -247 56 -419 57 -202 0 -341 -23 -600 -97 -17 -5 -33 10 -88 83
-116 156 -291 319 -453 424 -128 82 -323 156 -488 184 -77 13 -135 15 -255 11
-185 -6 -272 -25 -124 -26 333 -3 638 -100 869 -277 136 -104 299 -299 348
-416 17 -43 15 -45 -22 -19 -31 21 -169 91 -222 111 -19 8 -82 59 -140 114
-116 112 -214 181 -335 236 -109 51 -191 70 -318 77 l-108 6 -79 52 c-85 56
-199 105 -319 137 -56 15 -115 21 -226 23 -82 2 -163 1 -180 -1z m-740 -289
c90 -26 289 -126 274 -138 -91 -73 -97 -76 -145 -61 -119 36 -250 26 -399 -28
-77 -27 -88 -29 -280 -31 -169 -3 -212 -6 -275 -24 l-75 -22 57 54 c115 108
267 199 409 244 123 40 306 43 434 6z m1780 4 c144 -35 298 -123 430 -245 l60
-55 -45 6 c-146 20 -194 24 -276 25 l-90 0 -44 62 c-24 34 -79 99 -122 144
-43 45 -78 84 -78 87 0 8 78 -3 165 -24z m-685 -10 c50 -11 90 -25 90 -30 0
-5 -4 -9 -9 -9 -13 0 -185 -115 -201 -135 -7 -9 11 1 41 21 30 20 89 54 132
75 l77 39 53 -26 c87 -44 179 -108 242 -167 50 -47 56 -56 38 -57 -12 0 -74
-14 -139 -30 l-116 -30 -45 41 c-64 58 -141 91 -230 97 -40 3 -73 9 -73 14 0
5 -6 6 -12 1 -7 -4 -49 -15 -93 -24 -44 -9 -109 -28 -144 -42 l-64 -26 -76 61
c-42 34 -97 75 -123 92 -26 17 -48 33 -48 36 0 9 174 78 240 95 153 40 305 41
460 4z m489 -36 c70 -75 161 -198 161 -220 0 -9 -15 -13 -51 -13 -48 0 -54 3
-117 61 -67 61 -177 140 -241 173 -18 10 -29 21 -25 26 12 11 131 38 174 39
30 1 43 -7 99 -66z m-1198 -177 c81 -69 145 -134 138 -139 -2 -1 -23 -15 -46
-30 l-42 -27 -68 68 c-37 37 -89 78 -115 92 -27 14 -48 28 -48 32 0 9 82 67
96 68 6 0 44 -29 85 -64z m-866 -85 l30 -6 -36 -23 c-31 -19 -51 -22 -129 -22
-220 0 -390 -93 -556 -305 -27 -34 -34 -38 -53 -29 -22 9 -22 10 26 73 62 82
56 76 141 149 101 86 190 130 322 157 68 14 204 17 255 6z m4225 -96 c390 -88
705 -344 899 -733 55 -110 91 -195 91 -217 0 -9 -18 -14 -64 -17 l-64 -3 -21
43 c-55 113 -244 245 -461 322 -52 19 -75 34 -113 77 -126 138 -406 236 -860
302 l-127 19 -58 52 c-76 71 -94 92 -85 100 15 14 174 48 348 74 75 11 442 -2
515 -19z"/>
<path d="M2810 18908 c-359 -251 -630 -657 -750 -1129 -52 -203 -61 -292 -90
-919 -13 -277 -4 -1222 14 -1545 70 -1226 246 -2297 531 -3245 223 -742 519
-1409 853 -1920 299 -458 823 -1457 965 -1840 37 -99 46 -131 98 -320 69 -253
198 -522 357 -744 405 -563 1022 -924 1814 -1061 78 -13 188 -29 243 -35 293
-31 832 -28 965 5 95 23 224 81 312 138 43 28 76 52 75 53 -2 2 -70 -5 -152
-16 -243 -30 -393 -40 -630 -40 -202 0 -433 15 -421 28 3 2 72 22 153 43 82
21 205 56 273 79 127 41 324 132 370 170 19 16 10 14 -36 -9 -88 -43 -244 -87
-359 -101 -110 -14 -284 -8 -380 14 -97 21 -185 48 -185 56 0 4 28 13 63 19
175 34 546 139 697 196 112 43 224 94 219 100 -3 2 -45 -2 -94 -10 -268 -44
-449 -59 -730 -59 -292 -1 -350 5 -482 46 -55 17 -64 22 -48 29 11 5 182 44
380 88 198 44 387 86 420 94 57 13 49 14 -125 9 -113 -3 -226 0 -290 7 -340
39 -695 162 -1011 350 -311 185 -657 484 -801 693 -40 59 -91 133 -113 165
-80 115 -180 262 -300 439 -68 99 -160 234 -205 300 -146 212 -624 935 -722
1089 -666 1056 -1236 2892 -1437 4635 -99 855 -139 2004 -86 2467 72 624 307
1222 644 1637 33 42 58 76 54 76 -5 -1 -28 -15 -53 -32z"/>
<path d="M5839 18160 c-42 -5 -103 -16 -135 -24 -33 -8 -137 -31 -233 -51
-211 -44 -356 -86 -436 -127 -75 -37 -92 -53 -100 -87 -12 -55 -279 -204 -460
-256 -224 -64 -419 -55 -620 29 l-40 17 30 -25 c109 -94 267 -175 387 -200
193 -40 327 -7 528 128 94 63 378 206 510 256 189 72 357 118 556 152 172 29
468 31 626 5 110 -19 275 -60 286 -73 4 -3 -27 -4 -68 -1 -102 7 -463 -9 -635
-29 -462 -52 -862 -183 -1119 -365 -102 -73 -229 -201 -204 -207 9 -2 105 -18
214 -36 l198 -34 66 56 c192 163 446 284 715 341 150 32 245 40 405 36 309 -8
612 -87 951 -248 206 -97 341 -194 513 -371 248 -254 399 -569 423 -885 6 -67
19 -105 148 -405 l143 -331 108 -32 c59 -18 110 -31 112 -29 6 7 -120 293
-180 406 -74 139 -117 209 -170 273 l-41 49 -38 266 c-21 147 -42 288 -47 315
-5 26 -7 47 -4 47 22 0 303 -280 412 -410 151 -181 290 -413 349 -582 32 -94
61 -228 61 -288 0 -34 3 -38 30 -44 43 -8 168 10 229 33 115 43 229 145 286
253 l29 55 -49 68 c-137 193 -300 358 -397 403 -63 29 -69 37 -37 47 49 16
230 149 292 215 58 60 78 90 63 90 -2 0 -30 -16 -62 -35 -104 -63 -158 -79
-269 -79 -94 -1 -105 1 -166 31 -36 18 -87 51 -113 74 -44 39 -143 166 -135
174 2 2 49 0 104 -5 165 -14 297 11 347 67 17 19 15 20 -93 37 -61 9 -154 29
-207 43 -94 24 -237 77 -256 94 -6 5 22 9 65 9 40 0 104 7 140 14 65 14 169
59 169 74 0 4 -31 6 -68 4 -79 -4 -165 16 -260 59 -82 37 -154 86 -296 203
-373 307 -684 502 -810 509 -22 2 -151 39 -286 84 -338 112 -625 183 -910 224
-154 22 -439 32 -551 19z"/>
<path d="M5897 17440 c-252 -53 -434 -220 -523 -482 -25 -75 -54 -212 -54
-257 0 -32 74 -157 161 -274 77 -101 271 -296 363 -364 143 -106 363 -219 445
-230 87 -12 293 64 417 153 151 107 254 311 254 503 0 100 -78 358 -156 514
-110 221 -244 358 -402 412 -131 46 -355 57 -505 25z m614 -257 c76 -39 113
-100 113 -188 0 -88 -37 -149 -113 -187 -149 -76 -310 23 -311 190 0 161 164
259 311 185z"/>
<path d="M4890 16899 c-146 -219 -216 -416 -226 -644 -19 -398 175 -800 572
-1186 92 -89 303 -263 310 -256 2 1 -17 44 -41 94 -24 51 -59 129 -78 175 -48
116 -169 449 -165 454 2 2 24 -25 48 -59 65 -89 291 -312 386 -380 100 -70
248 -149 346 -183 74 -27 249 -67 256 -59 2 2 -26 18 -64 35 -187 85 -436 301
-600 522 -131 177 -132 180 -22 105 589 -407 1261 -612 1828 -558 104 10 296
44 306 54 1 1 -63 1 -143 -2 -285 -7 -569 52 -923 192 -155 61 -487 221 -525
252 l-20 17 20 -7 c11 -4 81 -29 156 -55 152 -54 435 -128 609 -159 213 -37
320 -46 585 -46 263 0 354 8 545 46 108 21 331 90 313 96 -6 2 -71 -3 -145
-11 -562 -66 -1157 -31 -1599 93 -599 169 -1066 493 -1379 956 -102 151 -201
354 -251 515 -12 41 -26 79 -30 83 -4 5 -35 -33 -69 -84z"/>
<path d="M16728 16693 c-7 -187 -55 -315 -155 -418 -35 -36 -118 -95 -134 -95
-4 0 -5 32 -2 70 10 116 -27 171 -123 185 -22 3 -52 1 -69 -4 l-30 -9 33 -1
c40 -1 87 -24 96 -46 21 -55 -8 -146 -70 -222 -41 -50 -135 -119 -214 -157
l-55 -27 107 103 c58 57 111 113 117 125 6 12 11 42 11 67 0 52 -25 79 -94 97
-51 14 -218 6 -336 -16 -81 -16 -375 -87 -416 -101 -16 -6 -14 -2 6 19 30 31
167 110 272 157 42 19 75 36 74 37 -6 6 -201 -64 -292 -105 -50 -22 -132 -61
-182 -86 -50 -25 -94 -46 -97 -46 -3 0 -5 26 -5 59 0 71 -23 107 -77 117 -52
10 -139 -13 -213 -57 -136 -80 -267 -119 -339 -99 -70 19 -82 63 -45 167 13
36 23 46 62 63 26 12 67 40 91 63 40 39 121 150 121 167 0 4 -29 -20 -63 -54
-37 -35 -93 -76 -133 -96 -121 -61 -248 -212 -389 -463 l-60 -106 -7 76 c-10
100 -34 177 -69 214 -38 40 -53 36 -24 -6 71 -105 54 -242 -44 -355 l-30 -35
-1 46 c-1 116 -61 216 -145 239 -25 7 -49 10 -52 6 -4 -3 9 -21 29 -39 51 -47
69 -89 70 -162 0 -92 -13 -108 -37 -43 -24 68 -133 180 -225 231 -99 55 -110
55 -56 1 64 -64 104 -124 127 -190 19 -54 25 -155 12 -204 -5 -21 -9 -15 -20
33 -14 65 -53 149 -88 193 l-23 29 -113 -33 c-576 -166 -1029 -637 -1292
-1342 -78 -209 -127 -412 -111 -457 21 -60 121 -50 288 31 139 67 133 57 102
156 -14 46 -24 85 -22 87 2 2 20 -19 40 -47 20 -28 40 -50 44 -48 4 2 38 19
77 38 64 32 76 35 160 35 72 -1 100 -5 143 -24 28 -13 52 -27 52 -31 0 -4 -24
-19 -52 -35 -79 -42 -253 -160 -335 -226 -161 -132 -269 -281 -280 -386 l-5
-48 84 82 c82 82 84 83 118 73 54 -16 141 -12 185 9 23 10 64 45 94 80 91 104
239 217 401 304 161 86 382 147 590 162 259 19 656 -76 875 -208 206 -125 392
-335 475 -535 104 -247 115 -499 38 -807 -31 -125 -32 -138 -11 -338 l6 -57
36 22 c20 12 83 55 141 97 308 223 500 440 566 641 27 84 25 252 -4 355 -121
420 -554 761 -1257 988 -194 63 -398 88 -714 87 -198 0 -377 -17 -439 -42 -15
-5 -63 -10 -108 -11 -118 0 -201 42 -272 138 l-22 30 15 -44 c9 -25 27 -65 40
-89 14 -25 25 -46 25 -48 0 -1 -26 6 -57 17 -97 33 -268 59 -378 57 -55 -1
-115 1 -132 6 -32 7 -32 8 -18 36 43 84 209 176 465 258 135 43 443 122 478
122 7 0 45 15 85 34 99 47 209 66 381 66 167 0 384 -23 428 -46 119 -62 312
-95 548 -94 96 0 207 5 245 10 39 5 74 9 79 10 5 0 -12 -14 -37 -31 -82 -54
-154 -137 -203 -234 l-26 -50 32 37 c78 93 208 174 545 341 192 95 234 110
359 132 112 19 196 19 315 0 125 -21 140 -30 57 -39 -37 -4 -96 -17 -131 -30
-63 -23 -145 -78 -145 -98 0 -6 8 -4 18 5 60 55 194 86 307 72 48 -6 65 -13
100 -46 78 -72 135 -214 135 -340 0 -128 -45 -299 -117 -442 l-34 -69 30 18
c42 25 121 108 166 174 72 106 173 348 221 528 3 9 22 3 66 -22 84 -46 157
-66 237 -65 92 1 122 14 51 22 -69 8 -146 46 -209 103 -45 40 -121 133 -121
147 0 3 14 1 30 -5 17 -5 59 -8 94 -6 50 3 73 10 106 33 22 16 45 37 51 46 9
17 6 17 -33 -1 -55 -25 -85 -25 -125 0 -35 21 -78 80 -88 121 -6 26 -6 26 59
31 89 8 196 59 262 126 47 48 113 156 101 168 -2 3 -32 -6 -66 -21 -74 -31
-172 -55 -226 -55 -63 0 -126 37 -152 90 -22 41 -33 137 -15 128 114 -59 129
-63 199 -63 65 0 75 3 110 31 36 30 85 112 97 164 4 14 -6 1 -20 -28 -15 -29
-42 -65 -61 -79 -65 -50 -163 -28 -255 55 -74 67 -85 138 -27 186 29 24 31 25
171 19 159 -6 223 5 303 51 66 39 116 117 115 180 -1 17 -3 15 -14 -9 -21 -48
-71 -92 -134 -116 -48 -19 -75 -23 -172 -22 -82 0 -128 5 -160 17 -73 27 -183
31 -265 8 -38 -11 -79 -23 -90 -28 -13 -5 -5 9 22 38 90 99 129 223 119 383
-5 86 -25 198 -39 211 -2 3 -7 -53 -9 -123z"/>
<path d="M8753 14573 c-756 -527 -1551 -850 -2353 -958 -143 -19 -434 -33
-600 -29 l-125 4 130 -35 c220 -58 326 -70 625 -70 168 0 300 5 360 13 637 90
1198 358 1730 828 105 93 290 274 279 274 -3 0 -24 -12 -46 -27z"/>
<path d="M13519 14180 c-368 -58 -611 -231 -695 -494 -28 -90 -41 -235 -30
-330 l8 -57 131 -86 c249 -163 472 -334 622 -477 38 -36 78 -66 89 -66 35 0
224 69 317 116 223 111 343 231 391 388 17 56 20 84 15 155 -7 103 -52 287
-97 396 -45 106 -138 242 -208 304 -65 57 -171 115 -252 136 -70 19 -218 27
-291 15z m224 -244 c49 -20 95 -78 102 -129 23 -149 -123 -254 -255 -184 -52
27 -90 90 -90 148 0 127 127 214 243 165z"/>
<path d="M12792 12824 c561 -803 600 -856 773 -1033 294 -302 537 -401 758
-306 15 6 17 -1 17 -91 0 -116 -16 -181 -67 -284 -20 -41 -36 -77 -36 -80 4
-19 -121 -104 -197 -134 -67 -27 -228 -33 -309 -11 -166 43 -319 144 -512 335
-75 74 -175 184 -223 245 -162 204 -365 520 -511 792 -32 62 -60 111 -61 110
-2 -1 10 -70 26 -152 185 -981 484 -1528 889 -1625 131 -31 303 -4 452 71 169
85 296 186 494 394 208 218 247 299 251 525 l3 134 68 45 c123 81 254 226 349
388 38 64 134 272 134 290 0 3 -27 -20 -60 -51 -64 -61 -145 -105 -250 -133
-89 -24 -346 -24 -480 1 -307 57 -664 186 -1070 387 -169 83 -383 197 -484
257 -6 3 15 -30 46 -74z"/>
<path d="M7007 9963 c-211 -443 -207 -806 14 -1103 147 -199 407 -365 744
-475 120 -40 344 -96 376 -94 8 0 -40 19 -106 43 -153 55 -249 96 -355 153
-375 202 -599 460 -687 788 -23 88 -26 120 -27 265 -1 182 17 293 74 454 16
44 28 82 26 83 -2 2 -28 -50 -59 -114z"/>
<path d="M21420 9610 c-524 -73 -1221 -374 -2090 -903 -403 -245 -1155 -761
-1300 -892 -155 -141 -419 -355 -680 -551 -200 -151 -574 -406 -810 -552 -759
-470 -1518 -817 -2246 -1027 -121 -35 -295 -93 -385 -128 -615 -243 -1264
-409 -1849 -473 -221 -24 -675 -25 -865 -1 -298 38 -597 125 -766 223 -401
233 -701 548 -821 861 -17 46 -33 81 -36 79 -5 -6 34 -211 64 -331 36 -141 62
-221 96 -288 16 -33 24 -56 18 -52 -26 16 -204 267 -279 392 -43 74 -101 185
-127 248 -27 63 -50 113 -52 111 -1 -2 22 -84 53 -182 62 -196 133 -385 171
-451 13 -23 24 -44 24 -48 0 -11 -154 112 -239 191 -86 81 -229 241 -290 326
-19 27 -36 46 -38 44 -6 -6 62 -185 117 -308 71 -159 177 -311 232 -331 26 -9
-2 -19 -36 -13 -96 18 -307 206 -500 444 -54 67 -101 122 -103 122 -15 0 54
-227 111 -364 195 -465 543 -833 992 -1048 56 -27 169 -70 250 -97 267 -88
459 -119 789 -128 398 -10 674 22 1080 128 776 202 1345 411 1641 604 l81 53
213 42 c810 160 1454 386 1795 629 39 28 122 83 185 122 1191 748 1889 1226
2290 1569 1216 1041 2478 1775 3300 1920 134 23 341 43 364 34 9 -3 16 -2 16
4 0 5 -10 13 -22 16 -38 12 -279 15 -348 6z"/>
<path d="M8036 9249 c-215 -23 -336 -119 -340 -271 l-1 -53 185 -12 c460 -30
775 -110 908 -230 28 -24 51 -58 66 -95 20 -51 32 -64 102 -115 520 -374 1093
-631 1544 -694 124 -17 367 -15 476 5 163 29 328 98 463 193 91 64 226 204
298 310 60 88 139 223 130 223 -2 0 -30 -33 -61 -74 -78 -102 -226 -242 -329
-310 -412 -274 -888 -283 -1412 -25 -98 48 -142 63 -241 83 -248 51 -405 100
-534 167 -69 36 -138 86 -129 93 2 2 42 23 88 47 144 75 241 183 241 268 0
118 -159 245 -400 321 -278 87 -585 151 -809 169 -74 6 -142 10 -150 10 -9 -1
-52 -5 -95 -10z"/>
<path d="M4630 6163 c-122 -4 -541 -31 -702 -44 -140 -12 -177 -29 -65 -29 94
0 362 -27 547 -56 481 -74 947 -212 1285 -382 39 -19 284 -165 545 -325 535
-327 960 -585 1160 -704 l135 -81 150 -11 c500 -38 918 -152 1166 -317 88 -58
181 -159 224 -242 53 -104 322 -556 332 -559 19 -7 102 292 134 482 26 152 36
449 20 566 -35 249 -132 442 -291 580 -45 39 -71 52 -140 72 -261 76 -562 85
-865 26 -55 -10 -105 -19 -112 -19 -6 0 -23 20 -37 45 -80 135 -299 302 -585
445 -389 195 -915 354 -1615 490 -279 55 -797 80 -1286 63z"/>
<path d="M5425 4015 c-100 -26 -287 -100 -410 -162 l-80 -41 55 -16 c30 -8
123 -34 205 -56 211 -58 670 -185 995 -275 151 -42 349 -96 440 -121 143 -39
426 -118 655 -183 39 -10 126 -43 195 -71 504 -208 939 -173 1210 99 73 73
134 159 165 235 14 33 9 30 -54 -36 -75 -79 -174 -144 -273 -180 -54 -20 -83
-23 -203 -23 -176 0 -218 12 -456 133 -291 147 -756 309 -1439 501 -418 117
-832 221 -876 221 -21 -1 -79 -12 -129 -25z"/>
</g>
</svg>
